<svg xmlns="http://www.w3.org/2000/svg" viewBox="0 0 224 224">
  <defs>
    <linearGradient id="bg" x1="0" y1="0" x2="1" y2="1">
      <stop offset="0" stop-color="#2A1838"/>
      <stop offset="1" stop-color="#1E1028"/>
    </linearGradient>
  </defs>
  <rect width="224" height="224" rx="28" fill="url(#bg)"/>
  <!-- system A -->
  <rect x="30" y="44" width="70" height="56" rx="10" fill="#3A2249" stroke="#8B4BA3" stroke-width="4"/>
  <rect x="30" y="44" width="70" height="16" rx="8" fill="#8B4BA3"/>
  <rect x="42" y="70" width="46" height="7" rx="3.5" fill="#C4B2D1" opacity="0.6"/>
  <rect x="42" y="83" width="32" height="7" rx="3.5" fill="#C4B2D1" opacity="0.35"/>
  <!-- system B -->
  <rect x="124" y="124" width="70" height="56" rx="10" fill="#3A2249" stroke="#8B4BA3" stroke-width="4"/>
  <rect x="124" y="124" width="70" height="16" rx="8" fill="#8B4BA3"/>
  <rect x="136" y="150" width="46" height="7" rx="3.5" fill="#C4B2D1" opacity="0.6"/>
  <rect x="136" y="163" width="32" height="7" rx="3.5" fill="#C4B2D1" opacity="0.35"/>
  <!-- endless loop arrows -->
  <path d="M 128 72 C 168 72 178 92 178 112" fill="none" stroke="#FF6B35" stroke-width="8" stroke-linecap="round"/>
  <path d="M 166 104 L 178 118 L 190 104" fill="none" stroke="#FF6B35" stroke-width="8" stroke-linecap="round" stroke-linejoin="round"/>
  <path d="M 96 152 C 56 152 46 132 46 112" fill="none" stroke="#FF6B35" stroke-width="8" stroke-linecap="round"/>
  <path d="M 34 120 L 46 106 L 58 120" fill="none" stroke="#FF6B35" stroke-width="8" stroke-linecap="round" stroke-linejoin="round"/>
</svg>
