<svg xmlns="http://www.w3.org/2000/svg" viewBox="0 0 224 224">
  <defs>
    <linearGradient id="bg" x1="0" y1="0" x2="1" y2="1">
      <stop offset="0" stop-color="#2A1838"/>
      <stop offset="1" stop-color="#1E1028"/>
    </linearGradient>
  </defs>
  <rect width="224" height="224" rx="28" fill="url(#bg)"/>
  <!-- rigid robot head -->
  <line x1="76" y1="52" x2="76" y2="38" stroke="#8B4BA3" stroke-width="6" stroke-linecap="round"/>
  <circle cx="76" cy="32" r="7" fill="#FF6B35"/>
  <rect x="38" y="52" width="76" height="66" rx="12" fill="#3A2249" stroke="#8B4BA3" stroke-width="4"/>
  <!-- flat dead eyes -->
  <rect x="54" y="76" width="16" height="6" rx="3" fill="#C4B2D1"/>
  <rect x="84" y="76" width="16" height="6" rx="3" fill="#C4B2D1"/>
  <!-- flat mouth -->
  <rect x="62" y="98" width="30" height="6" rx="3" fill="#8B4BA3"/>
  <!-- rigid numbered-menu card -->
  <rect x="120" y="76" width="74" height="78" rx="12" fill="#3A2249" stroke="#8B4BA3" stroke-width="4"/>
  <circle cx="136" cy="96" r="6" fill="#8B4BA3"/>
  <rect x="148" y="92" width="34" height="8" rx="4" fill="#C4B2D1" opacity="0.55"/>
  <circle cx="136" cy="116" r="6" fill="#8B4BA3"/>
  <rect x="148" y="112" width="34" height="8" rx="4" fill="#C4B2D1" opacity="0.55"/>
  <circle cx="136" cy="136" r="6" fill="#8B4BA3"/>
  <rect x="148" y="132" width="34" height="8" rx="4" fill="#C4B2D1" opacity="0.55"/>
  <!-- frustrated user reply: angry bubble -->
  <path d="M 56 142 h 58 a 12 12 0 0 1 12 12 v 18 a 12 12 0 0 1 -12 12 h -34 l -14 12 v -12 h -10 a 12 12 0 0 1 -12 -12 v -18 a 12 12 0 0 1 12 -12 z" fill="#FF6B35"/>
  <line x1="72" y1="155" x2="82" y2="171" stroke="#1E1028" stroke-width="7" stroke-linecap="round"/>
  <line x1="82" y1="155" x2="72" y2="171" stroke="#1E1028" stroke-width="7" stroke-linecap="round"/>
  <line x1="94" y1="155" x2="104" y2="171" stroke="#1E1028" stroke-width="7" stroke-linecap="round"/>
  <line x1="104" y1="155" x2="94" y2="171" stroke="#1E1028" stroke-width="7" stroke-linecap="round"/>
</svg>
