<svg xmlns="http://www.w3.org/2000/svg" viewBox="0 0 224 224">
  <defs>
    <linearGradient id="bg" x1="0" y1="0" x2="1" y2="1">
      <stop offset="0" stop-color="#2A1838"/>
      <stop offset="1" stop-color="#1E1028"/>
    </linearGradient>
  </defs>
  <rect width="224" height="224" rx="28" fill="url(#bg)"/>
  <!-- scattered tilted panels -->
  <g transform="rotate(-8 70 78)">
    <rect x="30" y="44" width="80" height="64" rx="10" fill="#3A2249" stroke="#8B4BA3" stroke-width="4"/>
    <rect x="42" y="76" width="10" height="22" rx="3" fill="#8B4BA3"/>
    <rect x="58" y="64" width="10" height="34" rx="3" fill="#8B4BA3" opacity="0.7"/>
    <rect x="74" y="84" width="10" height="14" rx="3" fill="#8B4BA3" opacity="0.5"/>
    <rect x="42" y="52" width="36" height="6" rx="3" fill="#C4B2D1" opacity="0.5"/>
  </g>
  <g transform="rotate(6 158 84)">
    <rect x="122" y="52" width="72" height="56" rx="10" fill="#3A2249" stroke="#8B4BA3" stroke-width="4"/>
    <path d="M 132 96 L 148 78 L 160 88 L 182 66" fill="none" stroke="#FF6B35" stroke-width="6" stroke-linecap="round" stroke-linejoin="round"/>
  </g>
  <g transform="rotate(-5 76 158)">
    <rect x="40" y="130" width="72" height="52" rx="10" fill="#3A2249" stroke="#8B4BA3" stroke-width="4"/>
    <circle cx="66" cy="156" r="14" fill="none" stroke="#FF6B35" stroke-width="6"/>
    <path d="M 66 142 A 14 14 0 0 1 80 156 L 66 156 Z" fill="#FF6B35"/>
    <rect x="88" y="146" width="18" height="6" rx="3" fill="#C4B2D1" opacity="0.5"/>
    <rect x="88" y="158" width="14" height="6" rx="3" fill="#C4B2D1" opacity="0.35"/>
  </g>
  <!-- question mark: no unified view -->
  <g transform="rotate(7 158 154)">
    <rect x="134" y="128" width="52" height="52" rx="10" fill="#3A2249" stroke="#FF6B35" stroke-width="4"/>
    <path d="M 150 148 C 150 140 156 136 160 136 C 166 136 170 140 170 145 C 170 151 160 152 160 159" fill="none" stroke="#FF6B35" stroke-width="7" stroke-linecap="round"/>
    <circle cx="160" cy="170" r="4.5" fill="#FF6B35"/>
  </g>
</svg>
