<svg xmlns="http://www.w3.org/2000/svg" viewBox="0 0 224 224">
  <defs>
    <linearGradient id="bg" x1="0" y1="0" x2="1" y2="1">
      <stop offset="0" stop-color="#2A1838"/>
      <stop offset="1" stop-color="#1E1028"/>
    </linearGradient>
  </defs>
  <rect width="224" height="224" rx="28" fill="url(#bg)"/>
  <!-- app window -->
  <rect x="38" y="44" width="148" height="104" rx="14" fill="none" stroke="#8B4BA3" stroke-width="8"/>
  <!-- title bar -->
  <line x1="38" y1="72" x2="186" y2="72" stroke="#8B4BA3" stroke-width="8"/>
  <circle cx="56" cy="58" r="5" fill="#FF6B35"/>
  <circle cx="74" cy="58" r="5" fill="#8B4BA3"/>
  <!-- sidebar -->
  <rect x="52" y="84" width="34" height="52" rx="8" fill="#8B4BA3"/>
  <!-- content cards -->
  <rect x="96" y="84" width="76" height="22" rx="7" fill="#FF6B35"/>
  <rect x="96" y="114" width="34" height="22" rx="7" fill="#C4B2D1" opacity=".55"/>
  <rect x="138" y="114" width="34" height="22" rx="7" fill="#C4B2D1" opacity=".55"/>
  <!-- connected nodes below (integrações) -->
  <circle cx="70" cy="184" r="11" fill="#FF6B35"/>
  <circle cx="112" cy="184" r="11" fill="#8B4BA3"/>
  <circle cx="154" cy="184" r="11" fill="#FF6B35"/>
  <path d="M 112 148 L 112 173" stroke="#C4B2D1" stroke-width="6" stroke-linecap="round" stroke-dasharray="1 12"/>
  <path d="M 92 158 C 78 164 72 170 70 173" stroke="#C4B2D1" stroke-width="6" stroke-linecap="round" stroke-dasharray="1 12" fill="none"/>
  <path d="M 132 158 C 146 164 152 170 154 173" stroke="#C4B2D1" stroke-width="6" stroke-linecap="round" stroke-dasharray="1 12" fill="none"/>
</svg>
