<svg xmlns="http://www.w3.org/2000/svg" viewBox="0 0 224 224">
  <defs>
    <linearGradient id="bg" x1="0" y1="0" x2="1" y2="1">
      <stop offset="0" stop-color="#2A1838"/>
      <stop offset="1" stop-color="#1E1028"/>
    </linearGradient>
  </defs>
  <rect width="224" height="224" rx="28" fill="url(#bg)"/>
  <!-- AI chip -->
  <g stroke="#8B4BA3" stroke-width="5" stroke-linecap="round">
    <line x1="88" y1="40" x2="88" y2="26"/>
    <line x1="112" y1="40" x2="112" y2="26"/>
    <line x1="136" y1="40" x2="136" y2="26"/>
    <line x1="88" y1="128" x2="88" y2="142"/>
    <line x1="112" y1="128" x2="112" y2="142"/>
    <line x1="136" y1="128" x2="136" y2="142"/>
    <line x1="68" y1="60" x2="54" y2="60"/>
    <line x1="68" y1="84" x2="54" y2="84"/>
    <line x1="68" y1="108" x2="54" y2="108"/>
    <line x1="156" y1="60" x2="170" y2="60"/>
    <line x1="156" y1="84" x2="170" y2="84"/>
    <line x1="156" y1="108" x2="170" y2="108"/>
  </g>
  <rect x="68" y="40" width="88" height="88" rx="14" fill="#3A2249" stroke="#8B4BA3" stroke-width="4"/>
  <!-- neural core -->
  <circle cx="112" cy="84" r="9" fill="#FF6B35"/>
  <g stroke="#FF6B35" stroke-width="4" stroke-linecap="round">
    <line x1="112" y1="84" x2="90" y2="64"/>
    <line x1="112" y1="84" x2="134" y2="64"/>
    <line x1="112" y1="84" x2="90" y2="104"/>
    <line x1="112" y1="84" x2="134" y2="104"/>
  </g>
  <circle cx="90" cy="64" r="6" fill="#8B4BA3"/>
  <circle cx="134" cy="64" r="6" fill="#8B4BA3"/>
  <circle cx="90" cy="104" r="6" fill="#8B4BA3"/>
  <circle cx="134" cy="104" r="6" fill="#8B4BA3"/>
  <!-- connections down -->
  <path d="M 92 142 C 92 158 62 152 62 164" fill="none" stroke="#C4B2D1" stroke-width="5" stroke-linecap="round" stroke-dasharray="1 12"/>
  <path d="M 132 142 C 132 158 162 152 162 164" fill="none" stroke="#C4B2D1" stroke-width="5" stroke-linecap="round" stroke-dasharray="1 12"/>
  <!-- database -->
  <g>
    <path d="M 38 170 v 20 c 0 6 11 11 24 11 s 24 -5 24 -11 v -20" fill="#3A2249" stroke="#FF6B35" stroke-width="4"/>
    <ellipse cx="62" cy="170" rx="24" ry="10" fill="#3A2249" stroke="#FF6B35" stroke-width="4"/>
  </g>
  <!-- document -->
  <g>
    <path d="M 142 158 h 26 l 14 14 v 30 h -40 z" fill="#3A2249" stroke="#FF6B35" stroke-width="4" stroke-linejoin="round"/>
    <line x1="150" y1="180" x2="174" y2="180" stroke="#C4B2D1" stroke-width="4" stroke-linecap="round" opacity="0.6"/>
    <line x1="150" y1="190" x2="166" y2="190" stroke="#C4B2D1" stroke-width="4" stroke-linecap="round" opacity="0.4"/>
  </g>
</svg>
