<svg xmlns="http://www.w3.org/2000/svg" viewBox="0 0 224 224">
  <defs>
    <linearGradient id="bg" x1="0" y1="0" x2="1" y2="1">
      <stop offset="0" stop-color="#2A1838"/>
      <stop offset="1" stop-color="#1E1028"/>
    </linearGradient>
  </defs>
  <rect width="224" height="224" rx="28" fill="url(#bg)"/>
  <!-- AI spark hologram -->
  <path d="M 112 34 l 7 17 17 7 -17 7 -7 17 -7 -17 -17 -7 17 -7 z" fill="#FF6B35"/>
  <path d="M 148 52 l 3.5 8.5 8.5 3.5 -8.5 3.5 -3.5 8.5 -3.5 -8.5 -8.5 -3.5 8.5 -3.5 z" fill="#C4B2D1" opacity="0.8"/>
  <!-- hologram beams -->
  <g stroke="#FF6B35" stroke-width="4" stroke-linecap="round" opacity="0.45">
    <line x1="96" y1="96" x2="70" y2="122"/>
    <line x1="112" y1="100" x2="112" y2="120"/>
    <line x1="128" y1="96" x2="154" y2="122"/>
  </g>
  <!-- person center (front) -->
  <circle cx="112" cy="140" r="17" fill="#8B4BA3"/>
  <path d="M 84 194 c 0 -18 13 -28 28 -28 s 28 10 28 28 z" fill="#8B4BA3"/>
  <!-- person left -->
  <circle cx="62" cy="148" r="14" fill="#6F2E8F"/>
  <path d="M 38 194 c 0 -16 11 -24 24 -24 s 24 8 24 24 z" fill="#6F2E8F"/>
  <!-- person right -->
  <circle cx="162" cy="148" r="14" fill="#6F2E8F"/>
  <path d="M 138 194 c 0 -16 11 -24 24 -24 s 24 8 24 24 z" fill="#6F2E8F"/>
</svg>
